<svg xmlns="http://www.w3.org/2000/svg" width="32" height="32" fill="none" viewBox="0 0 32 32"><circle cx="16" cy="16" r="16" fill="#242424"/><path fill="#f4f4f4" d="M10.6 11.714h-1.2c-0.332 0-0.6 0.287-0.6 0.643v2.786h-0.6c-0.11 0-0.2 0.096-0.2 0.214v1.286c0 0.118 0.090 0.214 0.2 0.214h0.6v2.786c0 0.356 0.268 0.643 0.6 0.643h1.2c0.332 0 0.6-0.287 0.6-0.643v-7.286c0-0.356-0.268-0.643-0.6-0.643zM23.8 15.143h-0.6v-2.786c0-0.356-0.267-0.643-0.6-0.643h-1.2c-0.332 0-0.6 0.287-0.6 0.643v7.286c0 0.356 0.267 0.643 0.6 0.643h1.2c0.332 0 0.6-0.287 0.6-0.643v-2.786h0.6c0.11 0 0.2-0.096 0.2-0.214v-1.286c0-0.118-0.090-0.214-0.2-0.214zM19.4 10h-1.2c-0.332 0-0.6 0.287-0.6 0.643v4.5h-3.2v-4.5c0-0.356-0.268-0.643-0.6-0.643h-1.2c-0.332 0-0.6 0.287-0.6 0.643v10.714c0 0.356 0.268 0.643 0.6 0.643h1.2c0.332 0 0.6-0.287 0.6-0.643v-4.5h3.2v4.5c0 0.356 0.267 0.643 0.6 0.643h1.2c0.332 0 0.6-0.287 0.6-0.643v-10.714c0-0.356-0.267-0.643-0.6-0.643z"/></svg>