<svg width="136" height="16" viewBox="0 0 136 16" xmlns="http://www.w3.org/2000/svg">
<mask id="path-1-outside-1_126_18321" maskUnits="userSpaceOnUse" x="-0.231445" y="0" width="136" height="16">
<rect x="-0.231445" width="136" height="16"/>
<path d="M6.74856 9.28L1.76855 1H4.74855L8.08855 6.74H8.12856L11.4686 1H14.4486L9.46855 9.28V15H6.74856V9.28Z"/>
<path d="M14.4389 12.7V3.3L16.7389 1H23.9389L26.2389 3.3V12.7L23.9389 15H16.7389L14.4389 12.7ZM22.4989 12.68L23.5189 11.66V4.34L22.4989 3.32H18.1789L17.1589 4.34V11.66L18.1789 12.68H22.4989Z"/>
<path d="M28.1428 12.6V1H30.8628V11.66L31.8828 12.68H35.8028L36.8228 11.66V1H39.5428V12.6L37.1428 15H30.5428L28.1428 12.6Z"/>
<path d="M52.6467 10.36V15H49.9267V10.98L48.7267 9.64H44.3667V15H41.6467V1H50.4267L52.5667 3.16V7.4L51.2067 8.78L52.6467 10.36ZM44.3667 7.4H49.1867L49.8867 6.7V3.98L49.1867 3.28H44.3667V7.4Z"/>
<path d="M59.592 1H69.712V3.3H62.312V6.84H69.132V9.1H62.312V12.7H69.712V15H59.592V1Z"/>
<path d="M71.2209 1H73.6609L79.9009 10.5H79.9409V1H82.5609V15H80.1209L73.8809 5.52H73.8409V15H71.2209V1Z"/>
<path d="M84.6662 1H94.7862V3.3H87.3862V6.84H94.2062V9.1H87.3862V12.7H94.7862V15H84.6662V1Z"/>
<path d="M107.295 10.36V15H104.575V10.98L103.375 9.64H99.0151V15H96.2951V1H105.075L107.215 3.16V7.4L105.855 8.78L107.295 10.36ZM99.0151 7.4H103.835L104.535 6.7V3.98L103.835 3.28H99.0151V7.4Z"/>
<path d="M109.091 12.7V3.3L111.391 1H118.351L120.611 3.26V5.4H117.891V4.26L116.951 3.32H112.831L111.811 4.34V11.66L112.831 12.68H116.991L117.971 11.7V9.52H114.971V7.2H120.611V12.7L118.311 15H111.391L109.091 12.7Z"/>
<path d="M125.596 9.28L120.616 1H123.596L126.936 6.74H126.976L130.316 1H133.296L128.316 9.28V15H125.596V9.28Z"/>
</mask>
<path d="M6.74856 9.28L1.76855 1H4.74855L8.08855 6.74H8.12856L11.4686 1H14.4486L9.46855 9.28V15H6.74856V9.28Z" />
<path d="M14.4389 12.7V3.3L16.7389 1H23.9389L26.2389 3.3V12.7L23.9389 15H16.7389L14.4389 12.7ZM22.4989 12.68L23.5189 11.66V4.34L22.4989 3.32H18.1789L17.1589 4.34V11.66L18.1789 12.68H22.4989Z" />
<path d="M28.1428 12.6V1H30.8628V11.66L31.8828 12.68H35.8028L36.8228 11.66V1H39.5428V12.6L37.1428 15H30.5428L28.1428 12.6Z" />
<path d="M52.6467 10.36V15H49.9267V10.98L48.7267 9.64H44.3667V15H41.6467V1H50.4267L52.5667 3.16V7.4L51.2067 8.78L52.6467 10.36ZM44.3667 7.4H49.1867L49.8867 6.7V3.98L49.1867 3.28H44.3667V7.4Z" />
<path d="M59.592 1H69.712V3.3H62.312V6.84H69.132V9.1H62.312V12.7H69.712V15H59.592V1Z" />
<path d="M71.2209 1H73.6609L79.9009 10.5H79.9409V1H82.5609V15H80.1209L73.8809 5.52H73.8409V15H71.2209V1Z" />
<path d="M84.6662 1H94.7862V3.3H87.3862V6.84H94.2062V9.1H87.3862V12.7H94.7862V15H84.6662V1Z" />
<path d="M107.295 10.36V15H104.575V10.98L103.375 9.64H99.0151V15H96.2951V1H105.075L107.215 3.16V7.4L105.855 8.78L107.295 10.36ZM99.0151 7.4H103.835L104.535 6.7V3.98L103.835 3.28H99.0151V7.4Z" />
<path d="M109.091 12.7V3.3L111.391 1H118.351L120.611 3.26V5.4H117.891V4.26L116.951 3.32H112.831L111.811 4.34V11.66L112.831 12.68H116.991L117.971 11.7V9.52H114.971V7.2H120.611V12.7L118.311 15H111.391L109.091 12.7Z" />
<path d="M125.596 9.28L120.616 1H123.596L126.936 6.74H126.976L130.316 1H133.296L128.316 9.28V15H125.596V9.28Z" />
<path d="M6.74856 9.28L1.76855 1H4.74855L8.08855 6.74H8.12856L11.4686 1H14.4486L9.46855 9.28V15H6.74856V9.28Z"  stroke-width="2" mask="url(#path-1-outside-1_126_18321)"/>
<path d="M14.4389 12.7V3.3L16.7389 1H23.9389L26.2389 3.3V12.7L23.9389 15H16.7389L14.4389 12.7ZM22.4989 12.68L23.5189 11.66V4.34L22.4989 3.32H18.1789L17.1589 4.34V11.66L18.1789 12.68H22.4989Z"  stroke-width="2" mask="url(#path-1-outside-1_126_18321)"/>
<path d="M28.1428 12.6V1H30.8628V11.66L31.8828 12.68H35.8028L36.8228 11.66V1H39.5428V12.6L37.1428 15H30.5428L28.1428 12.6Z"  stroke-width="2" mask="url(#path-1-outside-1_126_18321)"/>
<path d="M52.6467 10.36V15H49.9267V10.98L48.7267 9.64H44.3667V15H41.6467V1H50.4267L52.5667 3.16V7.4L51.2067 8.78L52.6467 10.36ZM44.3667 7.4H49.1867L49.8867 6.7V3.98L49.1867 3.28H44.3667V7.4Z"  stroke-width="2" mask="url(#path-1-outside-1_126_18321)"/>
<path d="M59.592 1H69.712V3.3H62.312V6.84H69.132V9.1H62.312V12.7H69.712V15H59.592V1Z"  stroke-width="2" mask="url(#path-1-outside-1_126_18321)"/>
<path d="M71.2209 1H73.6609L79.9009 10.5H79.9409V1H82.5609V15H80.1209L73.8809 5.52H73.8409V15H71.2209V1Z"  stroke-width="2" mask="url(#path-1-outside-1_126_18321)"/>
<path d="M84.6662 1H94.7862V3.3H87.3862V6.84H94.2062V9.1H87.3862V12.7H94.7862V15H84.6662V1Z"  stroke-width="2" mask="url(#path-1-outside-1_126_18321)"/>
<path d="M107.295 10.36V15H104.575V10.98L103.375 9.64H99.0151V15H96.2951V1H105.075L107.215 3.16V7.4L105.855 8.78L107.295 10.36ZM99.0151 7.4H103.835L104.535 6.7V3.98L103.835 3.28H99.0151V7.4Z"  stroke-width="2" mask="url(#path-1-outside-1_126_18321)"/>
<path d="M109.091 12.7V3.3L111.391 1H118.351L120.611 3.26V5.4H117.891V4.26L116.951 3.32H112.831L111.811 4.34V11.66L112.831 12.68H116.991L117.971 11.7V9.52H114.971V7.2H120.611V12.7L118.311 15H111.391L109.091 12.7Z"  stroke-width="2" mask="url(#path-1-outside-1_126_18321)"/>
<path d="M125.596 9.28L120.616 1H123.596L126.936 6.74H126.976L130.316 1H133.296L128.316 9.28V15H125.596V9.28Z"  stroke-width="2" mask="url(#path-1-outside-1_126_18321)"/>
</svg>
