<svg aria-hidden="true" style="position: absolute; width: 0; height: 0; overflow: hidden;"
  xmlns="http://www.w3.org/2000/svg" xmlns:xlink="http://www.w3.org/1999/xlink">
  <defs>
    <symbol id="icon-close" viewBox="0 0 18 18">
      <path d="M12.75 5.25L5.25 12.75M5.25 5.25L12.75 12.75" stroke="currentColor"
        stroke-width="1.5" stroke-linecap="round" stroke-linejoin="round" />
    </symbol>
    <symbol id="icon-facebook" viewBox="0 0 32 32">
      <path
        d="M19.52 4.64c0.24 0 0.48 0 0.96 0v3.6c-0.24 0-0.72 0-1.2 0s-0.96 0-1.2 0.24c-0.24 0.24-0.24 0.48-0.24 1.040 0 0.48 0 0.8 0 1.28h2.64v3.040h-2.64v13.2h-4.080v-13.28h-2.16v-3.040h2.16v-1.040c0-1.76 0.24-3.040 0.72-3.6 0.72-1.040 2.16-1.52 4.32-1.52 0.24 0.080 0.48 0.080 0.72 0.080z"></path>
    </symbol>
    <symbol id="icon-instagram" viewBox="0 0 32 32">
      <path
        d="M28.717 10.756c-0.016-1.074-0.215-2.14-0.596-3.145-0.667-1.716-2.024-3.073-3.743-3.737-0.994-0.373-2.044-0.573-3.108-0.596-1.368-0.061-1.801-0.078-5.273-0.078s-3.917 0-5.274 0.078c-1.062 0.023-2.112 0.223-3.106 0.596-1.719 0.664-3.078 2.021-3.743 3.737-0.374 0.992-0.576 2.041-0.596 3.101-0.061 1.367-0.080 1.8-0.080 5.265s0 3.909 0.080 5.265c0.021 1.062 0.222 2.109 0.596 3.104 0.667 1.714 2.024 3.071 3.744 3.735 0.989 0.386 2.040 0.605 3.106 0.639 1.369 0.061 1.803 0.079 5.274 0.079s3.916 0 5.274-0.079c1.062-0.021 2.113-0.221 3.108-0.595 1.719-0.666 3.076-2.022 3.743-3.737 0.374-0.994 0.574-2.041 0.596-3.104 0.061-1.365 0.080-1.798 0.080-5.265-0.003-3.466-0.003-3.906-0.082-5.264zM15.99 22.531c-3.631 0-6.572-2.936-6.572-6.561s2.941-6.561 6.572-6.561c3.628 0 6.572 2.936 6.572 6.561s-2.944 6.561-6.572 6.561zM22.823 10.696c-0.849 0-1.532-0.684-1.532-1.53s0.684-1.53 1.532-1.53c0.846 0 1.531 0.684 1.531 1.53s-0.685 1.53-1.531 1.53z"></path>
      <path
        d="M15.992 19.976c2.211 0 4.004-1.793 4.004-4.004s-1.793-4.004-4.004-4.004c-2.211 0-4.004 1.793-4.004 4.004s1.793 4.004 4.004 4.004z"></path>
    </symbol>
    <symbol id="icon-logo" viewBox="0 0 272 32">
      <path
        d="M13.497 18.56l-9.96-16.56h5.96l6.68 11.48h0.080l6.68-11.48h5.96l-9.96 16.56v11.44h-5.44v-11.44z"></path>
      <path
        d="M28.878 25.4v-18.8l4.6-4.6h14.4l4.6 4.6v18.8l-4.6 4.6h-14.4l-4.6-4.6zM44.998 25.36l2.040-2.040v-14.64l-2.040-2.040h-8.64l-2.040 2.040v14.64l2.040 2.040h8.64z"></path>
      <path
        d="M56.286 25.2v-23.2h5.44v21.32l2.040 2.040h7.84l2.040-2.040v-21.32h5.44v23.2l-4.8 4.8h-13.2l-4.8-4.8z"></path>
      <path
        d="M105.293 20.72v9.28h-5.44v-8.040l-2.4-2.68h-8.72v10.72h-5.44v-28h17.56l4.28 4.32v8.48l-2.72 2.76 2.88 3.16zM88.733 14.8h9.64l1.4-1.4v-5.44l-1.4-1.4h-9.64v8.24z"></path>
      <path d="M119.184 2h20.24v4.6h-14.8v7.080h13.64v4.52h-13.64v7.2h14.8v4.6h-20.24v-28z"></path>
      <path
        d="M142.442 2h4.88l12.48 19h0.080v-19h5.24v28h-4.88l-12.48-18.96h-0.080v18.96h-5.24v-28z"></path>
      <path d="M169.332 2h20.24v4.6h-14.8v7.080h13.64v4.52h-13.64v7.2h14.8v4.6h-20.24v-28z"></path>
      <path
        d="M214.59 20.72v9.28h-5.44v-8.040l-2.4-2.68h-8.72v10.72h-5.44v-28h17.56l4.28 4.32v8.48l-2.72 2.76 2.88 3.16zM198.030 14.8h9.64l1.4-1.4v-5.44l-1.4-1.4h-9.64v8.24z"></path>
      <path
        d="M218.182 25.4v-18.8l4.6-4.6h13.92l4.52 4.52v4.28h-5.44v-2.28l-1.88-1.88h-8.24l-2.040 2.040v14.64l2.040 2.040h8.32l1.96-1.96v-4.36h-6v-4.64h11.28v11l-4.6 4.6h-13.84l-4.6-4.6z"></path>
      <path
        d="M251.192 18.56l-9.96-16.56h5.96l6.68 11.48h0.080l6.68-11.48h5.96l-9.96 16.56v11.44h-5.44v-11.44z"></path>
    </symbol>
    <symbol id="icon-mobile-menu" viewBox="0 0 32 32">
      <path stroke-width="2" stroke-miterlimit="4" stroke-linecap="round" stroke-linejoin="round"
        d="M28 13.333h-24"></path>
      <path stroke-width="2" stroke-miterlimit="4" stroke-linecap="round" stroke-linejoin="round"
        d="M28 8h-24"></path>
      <path stroke-width="2" stroke-miterlimit="4" stroke-linecap="round" stroke-linejoin="round"
        d="M28 18.667h-24"></path>
      <path stroke-width="2" stroke-miterlimit="4" stroke-linecap="round" stroke-linejoin="round"
        d="M28 24h-24"></path>
    </symbol>
    <symbol id="icon-search" viewBox="0 0 18 18">
      <path
        d="M8.25 14.25C11.5637 14.25 14.25 11.5637 14.25 8.25C14.25 4.93629 11.5637 2.25 8.25 2.25C4.93629 2.25 2.25 4.93629 2.25 8.25C2.25 11.5637 4.93629 14.25 8.25 14.25Z"
        stroke="currentColor" stroke-width="1.5" stroke-linecap="round" stroke-linejoin="round" />
      <path d="M15.7498 15.75L12.4873 12.4875" stroke="currentColor" stroke-width="1.5"
        stroke-linecap="round" stroke-linejoin="round" />
    </symbol>
    <symbol id="icon-youtube" viewBox="0 0 32 32">
      <path
        d="M24.24 6c-1.36-0.080-4.16-0.16-8.4-0.16h-0.56c-4.080 0-6.8 0.080-8.16 0.24-1.84 0.16-3.12 0.64-3.84 1.28-0.64 0.56-1.12 1.6-1.28 2.96-0.080 0.88-0.16 2.72-0.16 5.52v0.4c0 2.64 0.080 4.48 0.24 5.36 0.24 1.28 0.64 2.24 1.44 2.8 0.8 0.64 2.16 1.040 4.080 1.2 1.36 0.080 4.16 0.16 8.4 0.16h0.56c4.080 0 6.8-0.080 8.16-0.24 1.84-0.16 3.12-0.64 3.84-1.28 0.64-0.56 1.12-1.6 1.28-2.96 0.080-0.88 0.16-2.72 0.16-5.52v-0.4c0-2.64-0.080-4.48-0.24-5.36-0.24-1.28-0.64-2.24-1.44-2.8-0.8-0.64-2.16-1.040-4.080-1.2zM21.12 15.84l-8.8 5.28v-10.56l8.8 5.28z"></path>
    </symbol>
    <symbol id="dumbbell" viewBox="0 0 34 32">
      <path fill="currentColor"
        d="M10.6 11.714h-1.2c-0.332 0-0.6 0.287-0.6 0.643v2.786h-0.6c-0.11 0-0.2 0.096-0.2 0.214v1.286c0 0.118 0.090 0.214 0.2 0.214h0.6v2.786c0 0.356 0.268 0.643 0.6 0.643h1.2c0.332 0 0.6-0.287 0.6-0.643v-7.286c0-0.356-0.268-0.643-0.6-0.643zM23.8 15.143h-0.6v-2.786c0-0.356-0.267-0.643-0.6-0.643h-1.2c-0.332 0-0.6 0.287-0.6 0.643v7.286c0 0.356 0.267 0.643 0.6 0.643h1.2c0.332 0 0.6-0.287 0.6-0.643v-2.786h0.6c0.11 0 0.2-0.096 0.2-0.214v-1.286c0-0.118-0.090-0.214-0.2-0.214zM19.4 10h-1.2c-0.332 0-0.6 0.287-0.6 0.643v4.5h-3.2v-4.5c0-0.356-0.268-0.643-0.6-0.643h-1.2c-0.332 0-0.6 0.287-0.6 0.643v10.714c0 0.356 0.268 0.643 0.6 0.643h1.2c0.332 0 0.6-0.287 0.6-0.643v-4.5h3.2v4.5c0 0.356 0.267 0.643 0.6 0.643h1.2c0.332 0 0.6-0.287 0.6-0.643v-10.714c0-0.356-0.267-0.643-0.6-0.643z"></path>
    </symbol>
    <symbol id="quote" viewBox="0 0 32 32">
      <path fill="#f4f4f4" style="fill: var(--color2, #f4f4f4)"
        d="M8.201 17.469c1.546-0.613 2.785-0.452 3.719 0.481s1.21 2.421 0.831 4.463c-0.292 1.517-0.933 2.683-1.925 3.5-0.963 0.787-2.085 1.181-3.369 1.181-1.75 0-2.96-0.671-3.631-2.013-0.671-1.371-0.802-3.208-0.394-5.512 0.233-1.254 0.613-2.523 1.137-3.806s1.225-2.596 2.1-3.938c0.875-1.342 2.013-2.508 3.413-3.5s2.946-1.633 4.637-1.925l-0.437 4.638c-1.429 0.292-2.698 1.035-3.806 2.231-1.108 1.167-1.867 2.567-2.275 4.2zM21.37 17.469c1.546-0.613 2.785-0.452 3.719 0.481s1.21 2.421 0.831 4.463c-0.292 1.517-0.933 2.683-1.925 3.5-0.963 0.787-2.085 1.181-3.369 1.181-1.75 0-2.96-0.671-3.631-2.013-0.671-1.371-0.802-3.208-0.394-5.512 0.233-1.254 0.613-2.523 1.137-3.806s1.225-2.596 2.1-3.938c0.875-1.342 2.013-2.508 3.413-3.5s2.946-1.633 4.637-1.925l-0.437 4.638c-1.429 0.292-2.698 1.035-3.806 2.231-1.108 1.167-1.867 2.567-2.275 4.2z"></path>
    </symbol>
    <symbol id="running" viewBox="0 0 34 32">
      <path fill="currentColor"
        d="M24.729 11.907c-0.268-0.313-0.746-0.354-1.066-0.093l-2.099 1.723-0.965-2.337c-0.034-0.088-0.086-0.161-0.146-0.226-0.197-0.429-0.54-0.797-1.012-1.010-0.205-0.091-0.417-0.14-0.628-0.164-0.047-0.024-0.089-0.055-0.142-0.071l-3.694-1.006c-0.207-0.055-0.416-0.020-0.586 0.078-0.203 0.067-0.377 0.211-0.46 0.42l-1.391 3.495c-0.151 0.38 0.042 0.809 0.432 0.959 0.388 0.147 0.828-0.042 0.98-0.424l1.175-2.951 1.683 0.457c-0.041 0.065-0.085 0.126-0.119 0.195l-2.157 4.568c-0.031 0.067-0.048 0.135-0.070 0.205l-2.621 4.294-4.387 1.434c-0.497 0.363-0.602 1.046-0.235 1.531 0.369 0.486 1.071 0.589 1.566 0.231l4.489-1.511c0.137-0.098 0.237-0.225 0.313-0.363 0.056-0.058 0.121-0.105 0.164-0.178l1.563-2.56 2.774 2.31-2.968 3.268c-0.409 0.451-0.368 1.145 0.095 1.543 0.462 0.402 1.17 0.36 1.582-0.093l3.704-4.078c0.115-0.126 0.184-0.271 0.23-0.422 0.028-0.082 0.028-0.168 0.034-0.253 0-0.043 0.017-0.082 0.013-0.122-0.010-0.299-0.134-0.589-0.385-0.796l-2.553-2.127c0.184-0.171 0.34-0.375 0.453-0.614l1.654-3.499 0.53 1.379c0.022 0.122 0.064 0.243 0.153 0.343 0.080 0.093 0.182 0.155 0.29 0.198 0.011 0.005 0.024 0.007 0.038 0.010 0.069 0.024 0.139 0.047 0.211 0.050 0.085 0.008 0.172-0.003 0.259-0.027 0.002-0.001 0.003-0.001 0.003-0.001 0.023-0.005 0.047-0.001 0.070-0.011 0.123-0.046 0.217-0.122 0.298-0.212l3.013-2.499c0.32-0.263 0.185-0.729-0.084-1.042z"></path>
      <path fill="currentColor"
        d="M20.919 10.126c1.166 0 2.111-0.924 2.111-2.063s-0.945-2.063-2.111-2.063c-1.166 0-2.111 0.924-2.111 2.063s0.945 2.063 2.111 2.063z"></path>
    </symbol>
    <symbol id="sun" viewBox="0 0 32 32">
      <path
        d="M14.254 13.505l0.363 0.372-4.466-12.797 5.321 12.466 0.018-0.52 0.441-13.027 0.441 13.026 0.018 0.52 5.321-12.466-4.466 12.797 9.465-9.702-8.787 10.32 12.331-5.628-11.922 6.449 13.531-0.793-13.446 1.707 12.904 4.148-13.155-3.266 10.534 8.53-11.087-7.798 6.741 11.759-7.521-11.276 2.038 13.4-2.94-13.232-2.94 13.232 2.038-13.4-7.521 11.276 6.741-11.759-11.087 7.798 10.534-8.53-13.155 3.266 12.904-4.148-13.446-1.707 13.531 0.793-11.922-6.449 12.331 5.628-8.787-10.32 9.102 9.33zM15.185 14.071l-0.646 0.4-0.458 0.607-0.208 0.731 0.070 0.757 0.339 0.68 0.562 0.512 0.709 0.275h0.76l0.709-0.275 0.562-0.512 0.339-0.68 0.070-0.757-0.208-0.731-0.458-0.607-0.646-0.4-0.747-0.14-0.747 0.14z"></path>
    </symbol>
    <symbol id="icon-arrow" viewBox="0 0 16 16">
      <path d="M7.5 1L14 7.5L7.5 14M14 7.5H1" stroke-width="1.3" stroke-linecap="round"
        stroke-linejoin="round" />
    </symbol>
    <symbol id="icon-run" viewBox="0 0 20 20">
      <path
        d="M18.5293 5.90673C18.2672 5.59374 17.8004 5.55259 17.4874 5.81359L15.4362 7.53667L14.4929 5.19953C14.4593 5.1118 14.4084 5.03816 14.3499 4.97318C14.1572 4.5443 13.8225 4.17608 13.3611 3.96272C13.1608 3.87175 12.9539 3.82302 12.7471 3.79919C12.7016 3.77536 12.6604 3.74396 12.6084 3.72771L8.99876 2.72159C8.79624 2.66636 8.59264 2.7021 8.42585 2.79957C8.22766 2.86672 8.05763 3.01076 7.9764 3.21978L6.61722 6.71466C6.46993 7.0948 6.65837 7.52367 7.03959 7.67313C7.41865 7.82042 7.8486 7.63089 7.99698 7.24967L9.14497 4.29846L10.789 4.75549C10.7489 4.82047 10.7056 4.88112 10.6731 4.95043L8.56556 9.51858C8.53523 9.58573 8.51899 9.65396 8.49733 9.72327L5.936 14.0174L1.64944 15.4513C1.16425 15.8141 1.06136 16.4975 1.41984 16.9827C1.78048 17.469 2.46603 17.5719 2.95014 17.2134L7.33634 15.7026C7.47063 15.6051 7.5681 15.4773 7.64175 15.3398C7.69698 15.2813 7.7598 15.2347 7.80204 15.1622L9.32908 12.6019L12.0399 14.912L9.13956 18.1805C8.73992 18.6311 8.78 19.3253 9.23269 19.7238C9.68431 20.1256 10.3764 20.0834 10.7782 19.6307L14.3976 15.5531C14.5102 15.4275 14.5774 15.2824 14.6229 15.1308C14.6499 15.0484 14.6499 14.9629 14.6564 14.8773C14.6564 14.834 14.6727 14.795 14.6694 14.7549C14.6597 14.456 14.5384 14.1658 14.2936 13.9589L11.7994 11.8319C11.9792 11.6608 12.1319 11.4572 12.2424 11.2178L13.8582 7.71861L14.3759 9.09729C14.3976 9.21967 14.4387 9.33988 14.5254 9.4406C14.6034 9.53374 14.703 9.59547 14.8091 9.6388C14.82 9.64421 14.833 9.64529 14.846 9.64854C14.9131 9.67237 14.9813 9.69511 15.0517 9.69836C15.1351 9.70594 15.2196 9.69511 15.3051 9.67129C15.3073 9.6702 15.3084 9.6702 15.3084 9.6702C15.3311 9.66479 15.3539 9.66912 15.3766 9.65937C15.4968 9.61389 15.5889 9.53699 15.668 9.4471L18.6116 6.94859C18.9246 6.68542 18.7924 6.21972 18.5293 5.90673Z" />
      <path
        d="M14.8063 4.12628C15.9457 4.12628 16.8694 3.20258 16.8694 2.06314C16.8694 0.923699 15.9457 0 14.8063 0C13.6669 0 12.7432 0.923699 12.7432 2.06314C12.7432 3.20258 13.6669 4.12628 14.8063 4.12628Z" />
    </symbol>
    <symbol id="icon-heart" viewBox="0 0 20 20">
      <path
        d="M17.3671 3.84172C16.9415 3.41589 16.4361 3.0781 15.8799 2.84763C15.3237 2.61716 14.7275 2.49854 14.1254 2.49854C13.5234 2.49854 12.9272 2.61716 12.371 2.84763C11.8147 3.0781 11.3094 3.41589 10.8838 3.84172L10.0004 4.72506L9.11709 3.84172C8.25735 2.98198 7.09128 2.49898 5.87542 2.49898C4.65956 2.49898 3.4935 2.98198 2.63376 3.84172C1.77401 4.70147 1.29102 5.86753 1.29102 7.08339C1.29102 8.29925 1.77401 9.46531 2.63376 10.3251L3.51709 11.2084L10.0004 17.6917L16.4838 11.2084L17.3671 10.3251C17.7929 9.89943 18.1307 9.39407 18.3612 8.83785C18.5917 8.28164 18.7103 7.68546 18.7103 7.08339C18.7103 6.48132 18.5917 5.88514 18.3612 5.32893C18.1307 4.77271 17.7929 4.26735 17.3671 3.84172Z"
        stroke-width="1.5" stroke-linecap="round" stroke-linejoin="round" />
    </symbol>
    <symbol id="icon-star" viewBox="0 0 19 18">
      <path
        d="M8.38586 0.690968C8.68521 -0.230343 9.98862 -0.230344 10.288 0.690967L11.8066 5.36473C11.9404 5.77675 12.3244 6.05571 12.7576 6.05571H17.6719C18.6406 6.05571 19.0434 7.29533 18.2597 7.86473L14.284 10.7533C13.9335 11.0079 13.7868 11.4593 13.9207 11.8713L15.4393 16.5451C15.7386 17.4664 14.6842 18.2325 13.9004 17.6631L9.9247 14.7746C9.57421 14.5199 9.09962 14.5199 8.74913 14.7746L4.77339 17.6631C3.98968 18.2325 2.9352 17.4664 3.23455 16.5451L4.75314 11.8713C4.88702 11.4593 4.74036 11.0079 4.38987 10.7533L0.414135 7.86473C-0.369579 7.29533 0.0331967 6.05571 1.00192 6.05571H5.9162C6.34943 6.05571 6.73339 5.77675 6.86726 5.36473L8.38586 0.690968Z" />
    </symbol>
    <symbol id="icon-trash" viewBox="0 0 20 20">
      <path
        d="M13.3333 4.99996V4.33329C13.3333 3.39987 13.3333 2.93316 13.1517 2.57664C12.9919 2.26304 12.7369 2.00807 12.4233 1.84828C12.0668 1.66663 11.6001 1.66663 10.6667 1.66663H9.33333C8.39991 1.66663 7.9332 1.66663 7.57668 1.84828C7.26308 2.00807 7.00811 2.26304 6.84832 2.57664C6.66667 2.93316 6.66667 3.39987 6.66667 4.33329V4.99996M8.33333 9.58329V13.75M11.6667 9.58329V13.75M2.5 4.99996H17.5M15.8333 4.99996V14.3333C15.8333 15.7334 15.8333 16.4335 15.5608 16.9683C15.3212 17.4387 14.9387 17.8211 14.4683 18.0608C13.9335 18.3333 13.2335 18.3333 11.8333 18.3333H8.16667C6.76654 18.3333 6.06647 18.3333 5.53169 18.0608C5.06129 17.8211 4.67883 17.4387 4.43915 16.9683C4.16667 16.4335 4.16667 15.7334 4.16667 14.3333V4.99996"
        stroke-width="1.5" stroke-linecap="round" stroke-linejoin="round" />
    </symbol>
    <symbol id="icon-trash-2" viewBox="0 0 16 16" fill="none">
      <path
        d="M10.6667 4.00004V3.46671C10.6667 2.71997 10.6667 2.3466 10.5213 2.06139C10.3935 1.8105 10.1895 1.60653 9.93865 1.4787C9.65344 1.33337 9.28007 1.33337 8.53333 1.33337H7.46667C6.71993 1.33337 6.34656 1.33337 6.06135 1.4787C5.81046 1.60653 5.60649 1.8105 5.47866 2.06139C5.33333 2.3466 5.33333 2.71997 5.33333 3.46671V4.00004M6.66667 7.66671V11M9.33333 7.66671V11M2 4.00004H14M12.6667 4.00004V11.4667C12.6667 12.5868 12.6667 13.1469 12.4487 13.5747C12.2569 13.951 11.951 14.257 11.5746 14.4487C11.1468 14.6667 10.5868 14.6667 9.46667 14.6667H6.53333C5.41323 14.6667 4.85318 14.6667 4.42535 14.4487C4.04903 14.257 3.74307 13.951 3.55132 13.5747C3.33333 13.1469 3.33333 12.5868 3.33333 11.4667V4.00004"
        stroke="currentColor" stroke-width="1.3" stroke-linecap="round" stroke-linejoin="round"/>
    </symbol>
    <symbol id="icon-fluent-food" viewBox="0 0 20 20">
      <path
        d="M4.6 5.71429H3.4C3.0675 5.71429 2.8 6.00089 2.8 6.35714V9.14286H2.2C2.09 9.14286 2 9.23929 2 9.35714V10.6429C2 10.7607 2.09 10.8571 2.2 10.8571H2.8V13.6429C2.8 13.9991 3.0675 14.2857 3.4 14.2857H4.6C4.9325 14.2857 5.2 13.9991 5.2 13.6429V6.35714C5.2 6.00089 4.9325 5.71429 4.6 5.71429ZM17.8 9.14286H17.2V6.35714C17.2 6.00089 16.9325 5.71429 16.6 5.71429H15.4C15.0675 5.71429 14.8 6.00089 14.8 6.35714V13.6429C14.8 13.9991 15.0675 14.2857 15.4 14.2857H16.6C16.9325 14.2857 17.2 13.9991 17.2 13.6429V10.8571H17.8C17.91 10.8571 18 10.7607 18 10.6429V9.35714C18 9.23929 17.91 9.14286 17.8 9.14286ZM13.4 4H12.2C11.8675 4 11.6 4.28661 11.6 4.64286V9.14286H8.4V4.64286C8.4 4.28661 8.1325 4 7.8 4H6.6C6.2675 4 6 4.28661 6 4.64286V15.3571C6 15.7134 6.2675 16 6.6 16H7.8C8.1325 16 8.4 15.7134 8.4 15.3571V10.8571H11.6V15.3571C11.6 15.7134 11.8675 16 12.2 16H13.4C13.7325 16 14 15.7134 14 15.3571V4.64286C14 4.28661 13.7325 4 13.4 4Z"
        fill="currentColor"/>
    </symbol>
    <symbol id="icon-start-arrow" viewBox="0 0 32 32">
      <path stroke-width="2.7733" stroke-miterlimit="4" stroke-linecap="round" stroke-linejoin="round"
            d="M15.253 1.387l13.867 13.867-13.867 13.867M29.12 15.253h-27.733"></path>
    </symbol>
    <symbol id="icon-pagination-last" viewBox="0 0 32 32">
      <path fill="none" stroke="#242424" stroke-width="1" stroke-miterlimit="4" stroke-linecap="butt" stroke-linejoin="miter" style="stroke: var(--color1, #242424)" d="M16 0.5c-8.56 0-15.5 6.94-15.5 15.5s6.94 15.5 15.5 15.5c8.56 0 15.5-6.94 15.5-15.5s-6.94-15.5-15.5-15.5z"></path>
      <path d="M21.167 16.592c0.078-0.078 0.14-0.17 0.182-0.271s0.064-0.21 0.064-0.32-0.022-0.219-0.064-0.32c-0.042-0.101-0.104-0.194-0.182-0.271l-3.825-3.817c-0.078-0.078-0.14-0.17-0.182-0.271s-0.064-0.21-0.064-0.321 0.022-0.219 0.064-0.32c0.042-0.101 0.104-0.194 0.182-0.271 0.156-0.155 0.367-0.242 0.587-0.242s0.431 0.087 0.587 0.242l3.825 3.825c0.468 0.469 0.731 1.104 0.731 1.767s-0.263 1.298-0.731 1.767l-3.825 3.825c-0.155 0.154-0.365 0.241-0.583 0.242-0.11 0.001-0.218-0.020-0.32-0.062s-0.194-0.103-0.272-0.18c-0.078-0.078-0.14-0.17-0.182-0.271s-0.064-0.21-0.064-0.32 0.022-0.219 0.064-0.32c0.042-0.102 0.104-0.194 0.182-0.271l3.825-3.817z"></path>
      <path d="M14.167 16.592c0.078-0.078 0.14-0.17 0.182-0.271s0.064-0.21 0.064-0.32-0.022-0.219-0.064-0.32c-0.042-0.101-0.104-0.194-0.182-0.271l-3.825-3.817c-0.078-0.078-0.14-0.17-0.182-0.271s-0.064-0.21-0.064-0.321 0.022-0.219 0.064-0.32c0.042-0.101 0.104-0.194 0.182-0.271 0.156-0.155 0.367-0.242 0.588-0.242s0.431 0.087 0.588 0.242l3.825 3.825c0.468 0.469 0.731 1.104 0.731 1.767s-0.263 1.298-0.731 1.767l-3.825 3.825c-0.155 0.154-0.365 0.241-0.583 0.242-0.11 0.001-0.218-0.020-0.32-0.062s-0.194-0.103-0.272-0.18c-0.078-0.078-0.14-0.17-0.182-0.271s-0.064-0.21-0.064-0.32 0.022-0.219 0.064-0.32c0.042-0.102 0.104-0.194 0.182-0.271l3.825-3.817z"></path>
    </symbol>
    <symbol id="icon-pagination-next" viewBox="0 0 32 32">
      <path fill="none" stroke="#242424" stroke-width="1" stroke-miterlimit="4" stroke-linecap="butt" stroke-linejoin="miter" style="stroke: var(--color1, #242424)" d="M16 0.5c-8.56 0-15.5 6.94-15.5 15.5s6.94 15.5 15.5 15.5c8.56 0 15.5-6.94 15.5-15.5s-6.94-15.5-15.5-15.5z"></path>
      <path d="M17.167 16.592c0.078-0.078 0.14-0.17 0.182-0.271s0.064-0.21 0.064-0.32-0.022-0.219-0.064-0.32c-0.042-0.101-0.104-0.194-0.182-0.271l-3.825-3.817c-0.078-0.078-0.14-0.17-0.182-0.271s-0.064-0.21-0.064-0.321 0.022-0.219 0.064-0.32c0.042-0.101 0.104-0.194 0.182-0.271 0.156-0.155 0.367-0.242 0.588-0.242s0.431 0.087 0.588 0.242l3.825 3.825c0.468 0.469 0.731 1.104 0.731 1.767s-0.263 1.298-0.731 1.767l-3.825 3.825c-0.155 0.154-0.365 0.241-0.583 0.242-0.11 0.001-0.218-0.020-0.32-0.062s-0.194-0.103-0.272-0.18c-0.078-0.078-0.14-0.17-0.182-0.271s-0.064-0.21-0.064-0.32 0.022-0.219 0.064-0.32c0.042-0.102 0.104-0.194 0.182-0.271l3.825-3.817z"></path>
    </symbol>
  </defs>
</svg>