<svg aria-hidden="true" style="position: absolute; width: 0; height: 0; overflow: hidden;"
     xmlns="http://www.w3.org/2000/svg" xmlns:xlink="http://www.w3.org/1999/xlink">
  <defs>
    <symbol id="icon-close" viewBox="0 0 32 32">
      <path stroke-width="2" stroke-miterlimit="4" stroke-linecap="round" stroke-linejoin="round"
            d="M24 8l-16 16"></path>
      <path stroke-width="2" stroke-miterlimit="4" stroke-linecap="round" stroke-linejoin="round" d="M8 8l16 16"></path>
    </symbol>
    <symbol id="icon-facebook" viewBox="0 0 32 32">
      <path
        d="M19.52 4.64c0.24 0 0.48 0 0.96 0v3.6c-0.24 0-0.72 0-1.2 0s-0.96 0-1.2 0.24c-0.24 0.24-0.24 0.48-0.24 1.040 0 0.48 0 0.8 0 1.28h2.64v3.040h-2.64v13.2h-4.080v-13.28h-2.16v-3.040h2.16v-1.040c0-1.76 0.24-3.040 0.72-3.6 0.72-1.040 2.16-1.52 4.32-1.52 0.24 0.080 0.48 0.080 0.72 0.080z"></path>
    </symbol>
    <symbol id="icon-instagram" viewBox="0 0 32 32">
      <path
        d="M28.717 10.756c-0.016-1.074-0.215-2.14-0.596-3.145-0.667-1.716-2.024-3.073-3.743-3.737-0.994-0.373-2.044-0.573-3.108-0.596-1.368-0.061-1.801-0.078-5.273-0.078s-3.917 0-5.274 0.078c-1.062 0.023-2.112 0.223-3.106 0.596-1.719 0.664-3.078 2.021-3.743 3.737-0.374 0.992-0.576 2.041-0.596 3.101-0.061 1.367-0.080 1.8-0.080 5.265s0 3.909 0.080 5.265c0.021 1.062 0.222 2.109 0.596 3.104 0.667 1.714 2.024 3.071 3.744 3.735 0.989 0.386 2.040 0.605 3.106 0.639 1.369 0.061 1.803 0.079 5.274 0.079s3.916 0 5.274-0.079c1.062-0.021 2.113-0.221 3.108-0.595 1.719-0.666 3.076-2.022 3.743-3.737 0.374-0.994 0.574-2.041 0.596-3.104 0.061-1.365 0.080-1.798 0.080-5.265-0.003-3.466-0.003-3.906-0.082-5.264zM15.99 22.531c-3.631 0-6.572-2.936-6.572-6.561s2.941-6.561 6.572-6.561c3.628 0 6.572 2.936 6.572 6.561s-2.944 6.561-6.572 6.561zM22.823 10.696c-0.849 0-1.532-0.684-1.532-1.53s0.684-1.53 1.532-1.53c0.846 0 1.531 0.684 1.531 1.53s-0.685 1.53-1.531 1.53z"></path>
      <path
        d="M15.992 19.976c2.211 0 4.004-1.793 4.004-4.004s-1.793-4.004-4.004-4.004c-2.211 0-4.004 1.793-4.004 4.004s1.793 4.004 4.004 4.004z"></path>
    </symbol>
    <symbol id="icon-logo" viewBox="0 0 272 32">
      <path d="M13.497 18.56l-9.96-16.56h5.96l6.68 11.48h0.080l6.68-11.48h5.96l-9.96 16.56v11.44h-5.44v-11.44z"></path>
      <path
        d="M28.878 25.4v-18.8l4.6-4.6h14.4l4.6 4.6v18.8l-4.6 4.6h-14.4l-4.6-4.6zM44.998 25.36l2.040-2.040v-14.64l-2.040-2.040h-8.64l-2.040 2.040v14.64l2.040 2.040h8.64z"></path>
      <path
        d="M56.286 25.2v-23.2h5.44v21.32l2.040 2.040h7.84l2.040-2.040v-21.32h5.44v23.2l-4.8 4.8h-13.2l-4.8-4.8z"></path>
      <path
        d="M105.293 20.72v9.28h-5.44v-8.040l-2.4-2.68h-8.72v10.72h-5.44v-28h17.56l4.28 4.32v8.48l-2.72 2.76 2.88 3.16zM88.733 14.8h9.64l1.4-1.4v-5.44l-1.4-1.4h-9.64v8.24z"></path>
      <path d="M119.184 2h20.24v4.6h-14.8v7.080h13.64v4.52h-13.64v7.2h14.8v4.6h-20.24v-28z"></path>
      <path d="M142.442 2h4.88l12.48 19h0.080v-19h5.24v28h-4.88l-12.48-18.96h-0.080v18.96h-5.24v-28z"></path>
      <path d="M169.332 2h20.24v4.6h-14.8v7.080h13.64v4.52h-13.64v7.2h14.8v4.6h-20.24v-28z"></path>
      <path
        d="M214.59 20.72v9.28h-5.44v-8.040l-2.4-2.68h-8.72v10.72h-5.44v-28h17.56l4.28 4.32v8.48l-2.72 2.76 2.88 3.16zM198.030 14.8h9.64l1.4-1.4v-5.44l-1.4-1.4h-9.64v8.24z"></path>
      <path
        d="M218.182 25.4v-18.8l4.6-4.6h13.92l4.52 4.52v4.28h-5.44v-2.28l-1.88-1.88h-8.24l-2.040 2.040v14.64l2.040 2.040h8.32l1.96-1.96v-4.36h-6v-4.64h11.28v11l-4.6 4.6h-13.84l-4.6-4.6z"></path>
      <path d="M251.192 18.56l-9.96-16.56h5.96l6.68 11.48h0.080l6.68-11.48h5.96l-9.96 16.56v11.44h-5.44v-11.44z"></path>
    </symbol>
    <symbol id="icon-mobile-menu" viewBox="0 0 32 32">
      <path stroke-width="2" stroke-miterlimit="4" stroke-linecap="round" stroke-linejoin="round"
            d="M28 13.333h-24"></path>
      <path stroke-width="2" stroke-miterlimit="4" stroke-linecap="round" stroke-linejoin="round" d="M28 8h-24"></path>
      <path stroke-width="2" stroke-miterlimit="4" stroke-linecap="round" stroke-linejoin="round"
            d="M28 18.667h-24"></path>
      <path stroke-width="2" stroke-miterlimit="4" stroke-linecap="round" stroke-linejoin="round" d="M28 24h-24"></path>
    </symbol>
    <symbol id="icon-search" viewBox="0 0 32 32">
      <path stroke-width="2.6667" stroke-miterlimit="4" stroke-linecap="round" stroke-linejoin="round"
            d="M14.667 25.333c5.891 0 10.667-4.776 10.667-10.667s-4.776-10.667-10.667-10.667c-5.891 0-10.667 4.776-10.667 10.667s4.776 10.667 10.667 10.667z"></path>
      <path stroke-width="2.6667" stroke-miterlimit="4" stroke-linecap="round" stroke-linejoin="round"
            d="M28 28l-5.8-5.8"></path>
    </symbol>
    <symbol id="icon-youtube" viewBox="0 0 32 32">
      <path
        d="M24.24 6c-1.36-0.080-4.16-0.16-8.4-0.16h-0.56c-4.080 0-6.8 0.080-8.16 0.24-1.84 0.16-3.12 0.64-3.84 1.28-0.64 0.56-1.12 1.6-1.28 2.96-0.080 0.88-0.16 2.72-0.16 5.52v0.4c0 2.64 0.080 4.48 0.24 5.36 0.24 1.28 0.64 2.24 1.44 2.8 0.8 0.64 2.16 1.040 4.080 1.2 1.36 0.080 4.16 0.16 8.4 0.16h0.56c4.080 0 6.8-0.080 8.16-0.24 1.84-0.16 3.12-0.64 3.84-1.28 0.64-0.56 1.12-1.6 1.28-2.96 0.080-0.88 0.16-2.72 0.16-5.52v-0.4c0-2.64-0.080-4.48-0.24-5.36-0.24-1.28-0.64-2.24-1.44-2.8-0.8-0.64-2.16-1.040-4.080-1.2zM21.12 15.84l-8.8 5.28v-10.56l8.8 5.28z"></path>
    </symbol>
  </defs>
</svg>